<?xml version="1.0" encoding="UTF-8" standalone="no"?>
<!DOCTYPE svg PUBLIC "-//W3C//DTD SVG 1.1//EN" "http://www.w3.org/Graphics/SVG/1.1/DTD/svg11.dtd">
<svg width="24px" height="24px" viewBox="0 0 32 32" version="1.1" xmlns="http://www.w3.org/2000/svg" xmlns:xlink="http://www.w3.org/1999/xlink" xml:space="preserve" xmlns:serif="http://www.serif.com/" style="fill-rule:evenodd;clip-rule:evenodd;stroke-linejoin:round;stroke-miterlimit:2;">
    <g transform="matrix(2.32508,0,0,2.32508,-21.2008,-21.2013)">
        <path d="M16,17.4L11.1,22.3C10.916,22.483 10.683,22.575 10.4,22.575C10.117,22.575 9.883,22.483 9.7,22.3C9.516,22.117 9.425,21.883 9.425,21.6C9.425,21.317 9.516,21.083 9.7,20.9L14.6,16L9.7,11.1C9.516,10.917 9.425,10.683 9.425,10.4C9.425,10.117 9.516,9.883 9.7,9.7C9.883,9.517 10.117,9.425 10.4,9.425C10.683,9.425 10.916,9.517 11.1,9.7L16,14.6L20.9,9.7C21.083,9.517 21.317,9.425 21.6,9.425C21.883,9.425 22.116,9.517 22.3,9.7C22.483,9.883 22.575,10.117 22.575,10.4C22.575,10.683 22.483,10.917 22.3,11.1L17.4,16L22.3,20.9C22.483,21.083 22.575,21.317 22.575,21.6C22.575,21.883 22.483,22.117 22.3,22.3C22.116,22.483 21.883,22.575 21.6,22.575C21.317,22.575 21.083,22.483 20.9,22.3L16,17.4Z" style="fill:rgb(42,54,71);fill-rule:nonzero;"/>
    </g>
</svg>
