<?xml version="1.0" encoding="UTF-8" standalone="no"?>
<!DOCTYPE svg PUBLIC "-//W3C//DTD SVG 1.1//EN" "http://www.w3.org/Graphics/SVG/1.1/DTD/svg11.dtd">
<svg width="25" height="25" viewBox="0 0 25 25" version="1.1" xmlns="http://www.w3.org/2000/svg" xmlns:xlink="http://www.w3.org/1999/xlink" xml:space="preserve" xmlns:serif="http://www.serif.com/" style="fill-rule:evenodd;clip-rule:evenodd;stroke-linejoin:round;stroke-miterlimit:2;">
    <g id="Menu-Icons" serif:id="Menu Icons">
        <g id="Vector">
            <path d="M18.795,4.192L18.795,20.808C18.794,21.297 18.599,21.766 18.253,22.112C17.907,22.459 17.438,22.653 16.948,22.654L13.256,22.654C12.767,22.653 12.297,22.459 11.951,22.112C11.605,21.766 11.41,21.297 11.41,20.808L11.41,4.192C11.41,3.703 11.605,3.233 11.951,2.887C12.297,2.541 12.767,2.346 13.256,2.346L16.948,2.346C17.438,2.346 17.907,2.541 18.253,2.887C18.599,3.233 18.794,3.703 18.795,4.192ZM13.256,20.808L16.948,20.808L16.948,4.192L13.256,4.192L13.256,20.808ZM13.256,4.192L13.256,20.808C13.256,21.297 13.061,21.766 12.715,22.112C12.369,22.458 11.899,22.653 11.41,22.654L7.718,22.654C7.228,22.653 6.759,22.458 6.413,22.112C6.067,21.766 5.872,21.297 5.871,20.807L5.871,4.192C5.872,3.703 6.067,3.233 6.413,2.887C6.759,2.541 7.228,2.346 7.718,2.346L11.41,2.346C11.899,2.346 12.369,2.541 12.715,2.887C13.061,3.233 13.256,3.703 13.256,4.192ZM7.718,20.807L11.41,20.808L11.41,4.192L7.718,4.192L7.718,20.807ZM7.718,4.192L7.718,20.807C7.717,21.297 7.522,21.766 7.176,22.112C6.83,22.458 6.361,22.653 5.871,22.654L2.179,22.654C1.69,22.653 1.22,22.458 0.874,22.112C0.528,21.766 0.333,21.297 0.333,20.807L0.333,4.192C0.333,3.703 0.528,3.233 0.874,2.887C1.22,2.541 1.69,2.346 2.179,2.346L5.871,2.346C6.361,2.346 6.83,2.541 7.176,2.887C7.522,3.233 7.717,3.703 7.718,4.192ZM2.179,20.807L5.871,20.807L5.871,4.192L2.179,4.192L2.179,20.807Z" style="fill:white;fill-rule:nonzero;"/>
            <path d="M24.333,4.192L24.333,20.808C24.333,21.297 24.138,21.766 23.792,22.113C23.446,22.459 22.976,22.653 22.487,22.654L18.795,22.654C18.305,22.653 17.836,22.459 17.49,22.113C17.144,21.766 16.949,21.297 16.948,20.808L16.948,4.192C16.949,3.703 17.144,3.233 17.49,2.887C17.836,2.541 18.305,2.347 18.795,2.346L22.487,2.346C22.976,2.347 23.446,2.541 23.792,2.887C24.138,3.233 24.333,3.703 24.333,4.192ZM18.795,20.808L22.487,20.808L22.487,4.192L18.795,4.192L18.795,20.808Z" style="fill:white;fill-rule:nonzero;"/>
        </g>
    </g>
</svg>
