<svg xmlns="http://www.w3.org/2000/svg" width="21" height="15" fill="none"><g fill="#FF3D00" clip-path="url(#a)"><path d="M19.571 14.755c-.234 0-.463-.075-.652-.214l-8.252-6.083-8.252 6.083a1.098 1.098 0 0 1-1.304-1.763l8.904-6.57a1.096 1.096 0 0 1 1.304 0l8.904 6.57a1.095 1.095 0 0 1-.652 1.977Z"/><path d="M19.571 9.006c-.234 0-.463-.075-.652-.214L10.667 2.71 2.415 8.792A1.098 1.098 0 0 1 1.111 7.03L10.015.46a1.096 1.096 0 0 1 1.304 0l8.904 6.57a1.096 1.096 0 0 1-.652 1.977Z"/></g><defs><clipPath id="a"><path fill="#fff" d="M.667.245h20v14.51h-20z"/></clipPath></defs></svg>